Coordinates
version=1
nRows=4
nColumns=40
inDegrees=yes

Units are S.I. units (second, meters, Newtons, ...)
If the header above contains a line with 'inDegrees', this indicates whether rotational values are in degrees (yes) or radians (no).

endheader
time	pelvis_tilt	pelvis_list	pelvis_rotation	pelvis_tx	pelvis_ty	pelvis_tz	hip_flexion_r	hip_adduction_r	hip_rotation_r	knee_angle_r	knee_angle_r_beta	ankle_angle_r	subtalar_angle_r	mtp_angle_r	hip_flexion_l	hip_adduction_l	hip_rotation_l	knee_angle_l	knee_angle_l_beta	ankle_angle_l	subtalar_angle_l	mtp_angle_l	lumbar_extension	lumbar_bending	lumbar_rotation	arm_flex_r	arm_add_r	arm_rot_r	elbow_flex_r	pro_sup_r	wrist_flex_r	wrist_dev_r	arm_flex_l	arm_add_l	arm_rot_l	elbow_flex_l	pro_sup_l	wrist_flex_l	wrist_dev_l
      4.72499999999999964473	      5.73295383616223830359	     -4.09287797682885567951	   -177.92657713840074507061	      0.38411689937973819697	      0.66621360271676022258	     -0.97671099480326384334	     57.63013295840453054097	    -49.62450893678506247397	     -6.49379315207743257332	     60.07144532834497141494	      1.04844450741138595085	      1.06761252697244501952	      0.00000000000000000000	      0.00000000000000000000	     48.58760768608451741102	    -45.54768835376552260641	    -22.49532983617666914711	     52.48751327352924533898	      0.91607992280731243007	     -7.02842825347584820861	      0.00000000000000000000	      0.00000000000000000000	    -65.84285026608240798396	     -0.03650568397947182714	     -1.35591872225463161428	     62.76415953756551857623	     -4.46700307361935777806	     23.76128570247325200171	      1.73152786805598957187	     76.55599814322269480726	      0.00000000000000000000	      0.00000000000000000000	     57.62574856716803139989	     -5.88116680640285860449	      8.19928483079522862909	      1.19033110924658935836	      5.39294827986366520634	      0.00000000000000000000	      0.00000000000000000000
      4.73000000000000042633	      5.79849442458684816160	     -4.02878979013285754007	   -177.85731439511542362197	      0.38422574653030722169	      0.66709586003418430700	     -0.97662981859155229003	     57.37319262934704511281	    -49.62287390227820083055	     -6.85826711171699621161	     59.83596543367012543513	      1.04433460792706034326	      0.92751502109230377080	      0.00000000000000000000	      0.00000000000000000000	     48.57244590482001456166	    -45.47442824367232816485	    -22.53153200343842499365	     52.24134999214272312429	      0.91178356304960439527	     -7.19972168820843538839	      0.00000000000000000000	      0.00000000000000000000	    -65.84743245604876449306	      0.09954471032121933738	     -1.38464370120936530739	     62.77394088002922956093	     -4.42652014542844085554	     23.99036470975591228694	      1.76835180627376709062	     75.67701706905668856962	      0.00000000000000000000	      0.00000000000000000000	     57.66245807206291829061	     -5.89013149213735065501	      8.06188471626031422090	      1.19885694584799051832	      5.21545684987476576566	      0.00000000000000000000	      0.00000000000000000000
      4.73500000000000031974	      5.84890394348982578521	     -3.99904871565129793609	   -177.81168513929145547081	      0.38416023407101623777	      0.66820216981012359181	     -0.97671637748162021264	     57.11710566622549123394	    -49.61569653587721262511	     -7.18438828831940856645	     59.59866034641978416175	      1.04019285282280948834	      0.82764100237654381065	      0.00000000000000000000	      0.00000000000000000000	     48.44450277030688312152	    -45.38182106279469252286	    -22.65744310188003396433	     51.94139017405461800081	      0.90654827660028369785	     -7.40296555185731541826	      0.00000000000000000000	      0.00000000000000000000	    -65.89685834477334935855	      0.18007470826162205735	     -1.40851105391762376762	     62.84057233187951396758	     -4.39682940090802887312	     23.51384554922014658018	      1.79665785479667672320	     75.25156339714527575779	      0.00000000000000000000	      0.00000000000000000000	     57.73758300099901674685	     -5.91243540413903367892	      7.97984879901175414574	      1.20233210564325831982	      5.30566721495485627003	      0.00000000000000000000	      0.00000000000000000000
      4.74000000000000021316	      5.86484224593786240831	     -3.89526741580762569939	   -177.72212661066600958293	      0.38419171287638786971	      0.66921198205741694309	     -0.97669002049807440713	     56.69079307208561857578	    -49.61891079144090355157	     -7.70962364123468724131	     59.35183821906033330151	      1.03588499403361034013	      0.81292720178812638565	      0.00000000000000000000	      0.00000000000000000000	     48.42528869242621425428	    -45.33173018661396724838	    -22.63916006696219795913	     51.69983474693481895201	      0.90233233907098198134	     -7.56321780959590395099	      0.00000000000000000000	      0.00000000000000000000	    -65.94957400142904191398	      0.35364297460751759061	     -1.40685459742213159196	     62.91338811017145360438	     -4.43958973496208120224	     23.40606898234814181592	      1.81107700967084572774	     76.79065044850905508156	      0.00000000000000000000	      0.00000000000000000000	     57.73756622287258721826	     -5.91865374372083330456	      8.16750326712973162557	      1.20392741576137485282	      5.34975627114973839582	      0.00000000000000000000	      0.00000000000000000000
